<?xml version="1.0" encoding="UTF-8" standalone="no"?>
<svg
   xmlns:dc="http://purl.org/dc/elements/1.1/"
   xmlns:cc="http://creativecommons.org/ns#"
   xmlns:rdf="http://www.w3.org/1999/02/22-rdf-syntax-ns#"
   xmlns:svg="http://www.w3.org/2000/svg"
   xmlns="http://www.w3.org/2000/svg"
   viewBox="0 0 1333.3333 1333.3333"
   height="1333.3333"
   width="1333.3333"
   xml:space="preserve"
   id="svg2"
   version="1.1"><metadata
     id="metadata8"><rdf:RDF><cc:Work
         rdf:about=""><dc:format>image/svg+xml</dc:format><dc:type
           rdf:resource="http://purl.org/dc/dcmitype/StillImage" /></cc:Work></rdf:RDF></metadata><defs
     id="defs6"><clipPath
       id="clipPath18"
       clipPathUnits="userSpaceOnUse"><path
         id="path16"
         d="M 0,1000 H 1000 V 0 H 0 Z" /></clipPath></defs><g
     transform="matrix(1.3333333,0,0,-1.3333333,0,1333.3333)"
     id="g10"><g
       id="g12"><g
         clip-path="url(#clipPath18)"
         id="g14"><g
           transform="translate(300.9902,353.9629)"
           id="g20"><path
             id="path22"
             style="fill:#fb925b;fill-opacity:1;fill-rule:nonzero;stroke:none"
             d="m 0,0 c -2.081,-1.133 -4.748,-1.791 -7.086,-1.791 -4.639,0 -8.364,3.068 -8.364,7.853 0,4.822 3.616,8.145 8.364,8.145 2.01,0 4.566,-0.62 5.589,-2.557 L -1.57,9.824 -1.461,7.962 h -2.338 l 0.037,1.022 c 0.074,2.375 -1.206,3.178 -3.507,3.178 -3.396,0 -5.806,-2.447 -5.806,-5.844 0,-3.615 2.446,-6.062 6.063,-6.062 2.081,0 4.346,0.656 6.208,1.606 z" /></g><g
           transform="translate(320.8584,360.1719)"
           id="g24"><path
             id="path26"
             style="fill:#fb925b;fill-opacity:1;fill-rule:nonzero;stroke:none"
             d="m 0,0 c 0,3.25 -2.229,5.953 -5.589,5.953 -3.359,0 -5.588,-2.703 -5.588,-5.953 0,-3.215 2.229,-5.953 5.588,-5.953 C -2.229,-5.953 0,-3.215 0,0 m -13.551,0 c 0,4.529 3.433,7.998 7.962,7.998 4.529,0 7.963,-3.469 7.963,-7.998 0,-4.493 -3.434,-8 -7.963,-8 -4.529,0 -7.962,3.507 -7.962,8" /></g><g
           transform="translate(332.8721,354.6562)"
           id="g28"><path
             id="path30"
             style="fill:#fb925b;fill-opacity:1;fill-rule:nonzero;stroke:none"
             d="M 0,0 H 2.484 V -2.045 H -4.748 V 0 h 2.484 v 11.031 l -2.667,-0.365 -0.328,1.862 c 1.169,0.074 2.374,0.22 3.214,0.986 0.292,0.33 0.512,0.621 0.986,0.621 C 0,14.135 0,13.113 0,12.309 v -0.547 c 1.863,0.876 3.689,1.752 5.808,1.752 1.754,0 3.653,-0.657 4.492,-2.301 0.658,-1.278 0.621,-2.959 0.621,-4.383 V 0 h 2.484 V -2.045 H 6.173 V 0 h 2.483 v 6.758 c 0,2.226 0.147,4.711 -2.848,4.711 -2.082,0 -4.09,-0.987 -5.808,-2.045 z" /></g><g
           transform="translate(365.9248,365.6875)"
           id="g32"><path
             id="path34"
             style="fill:#fb925b;fill-opacity:1;fill-rule:nonzero;stroke:none"
             d="m 0,0 h -7.269 v -11.031 h 6.465 v -2.045 h -13.003 v 2.045 h 4.274 V 0 h -5.369 v 2.045 h 5.369 v 2.154 c 0,4.092 1.498,5.48 4.858,5.48 2.557,0 5.552,-0.841 7.67,-2.228 L 1.571,5.66 c -1.827,1.316 -4.128,1.973 -6.283,1.973 -2.483,0 -2.557,-1.68 -2.557,-3.579 V 2.045 l 7.269,0 z" /></g><g
           transform="translate(386.5225,361.3398)"
           id="g36"><path
             id="path38"
             style="fill:#fb925b;fill-opacity:1;fill-rule:nonzero;stroke:none"
             d="M 0,0 C 0,2.85 -2.374,4.785 -5.112,4.785 -7.889,4.785 -10.373,2.74 -10.92,0 Z m -10.92,-2.045 c 0.219,-3.178 2.702,-5.076 6.61,-5.076 2.301,0 4.493,0.73 6.758,1.716 l 0.657,-1.863 c -2.301,-1.132 -5.15,-1.9 -7.707,-1.9 -6.61,0 -8.692,4.384 -8.692,7.671 0,4.675 3.433,8.327 8.145,8.327 4.492,0 7.451,-2.812 7.451,-7.341 0,-0.51 -0.037,-1.022 -0.147,-1.534 z" /></g><g
           transform="translate(403.7236,371.4941)"
           id="g40"><path
             id="path42"
             style="fill:#fb925b;fill-opacity:1;fill-rule:nonzero;stroke:none"
             d="M 0,0 C -1.277,0 -2.374,0.986 -2.374,2.265 -2.374,3.58 -1.277,4.566 0,4.566 1.243,4.566 2.338,3.58 2.338,2.265 2.338,0.986 1.243,0 0,0 m -8.035,-16.838 h 7.268 V -5.881 C -2.008,-6.1 -3.251,-6.318 -4.528,-6.246 l -3.105,0.184 -0.366,2.007 3.324,-0.218 c 1.133,-0.073 3.287,0.073 4.091,1.023 0.292,0.328 0.512,0.547 0.986,0.547 1.132,0 1.096,-1.096 1.096,-1.899 v -12.236 h 6.429 v -2.045 H -8.035 Z" /></g><g
           transform="translate(423.4814,367.7324)"
           id="g44"><path
             id="path46"
             style="fill:#fb925b;fill-opacity:1;fill-rule:nonzero;stroke:none"
             d="M 0,0 H 8.511 V -2.045 H 0 v -7.306 c 0,-1.899 -0.22,-4.163 2.338,-4.163 1.973,0 4.456,0.62 6.391,1.205 l 0.731,-1.935 c -2.229,-0.621 -5.077,-1.317 -7.342,-1.317 -2.739,0 -4.383,1.608 -4.383,5.188 v 8.328 H -7.524 V 0 h 5.259 v 4.055 l 2.265,0 z" /></g><g
           transform="translate(450.2158,359.8066)"
           id="g48"><path
             id="path50"
             style="fill:#fb925b;fill-opacity:1;fill-rule:nonzero;stroke:none"
             d="m 0,0 c -2.082,-0.073 -4.347,-0.256 -6.318,-0.73 -1.498,-0.366 -3.069,-0.877 -3.069,-2.704 0,-1.716 1.388,-2.154 2.849,-2.154 2.264,0 4.492,0.84 6.538,1.789 z m 0,-6.1 c -2.192,-0.914 -4.311,-1.535 -6.647,-1.535 -2.666,0 -5.115,1.242 -5.115,4.201 0,2.996 2.302,4.055 4.822,4.639 2.265,0.548 4.493,0.658 6.94,0.731 V 2.885 C 0,4.967 0.328,6.318 -2.447,6.318 -4.274,6.318 -6.1,5.916 -7.634,4.895 V 2.739 h -2.264 v 3.507 c 2.118,1.277 4.748,2.117 7.122,2.117 3.725,0 5.04,-0.985 5.04,-4.564 V -5.15 H 5.296 V -7.195 H 0 Z" /></g><g
           transform="translate(466.8691,354.6562)"
           id="g52"><path
             id="path54"
             style="fill:#fb925b;fill-opacity:1;fill-rule:nonzero;stroke:none"
             d="M 0,0 H 6.611 V -2.045 H -5.442 V 0 h 3.177 v 10.994 l -2.667,-0.365 -0.328,1.863 c 1.169,0.072 2.374,0.219 3.214,0.987 0.293,0.328 0.512,0.62 0.986,0.62 C 0,14.099 0,13.076 0,12.272 v -1.936 c 2.009,1.461 3.944,3.178 6.574,3.178 1.9,0 3.106,-1.278 3.69,-2.958 L 7.998,9.643 C 7.706,10.41 7.342,11.469 6.354,11.469 4.492,11.469 1.424,8.875 0,7.598 Z" /></g><g
           transform="translate(491.375,371.4941)"
           id="g56"><path
             id="path58"
             style="fill:#fb925b;fill-opacity:1;fill-rule:nonzero;stroke:none"
             d="M 0,0 C -1.278,0 -2.374,0.986 -2.374,2.265 -2.374,3.58 -1.278,4.566 0,4.566 1.242,4.566 2.338,3.58 2.338,2.265 2.338,0.986 1.242,0 0,0 m -8.035,-16.838 h 7.268 V -5.881 C -2.009,-6.1 -3.251,-6.318 -4.529,-6.246 l -3.104,0.184 -0.366,2.007 3.323,-0.218 c 1.133,-0.073 3.288,0.073 4.092,1.023 0.292,0.328 0.511,0.547 0.986,0.547 1.132,0 1.096,-1.096 1.096,-1.899 v -12.236 h 6.428 v -2.045 H -8.035 Z" /></g><g
           transform="translate(515.9551,359.8066)"
           id="g60"><path
             id="path62"
             style="fill:#fb925b;fill-opacity:1;fill-rule:nonzero;stroke:none"
             d="m 0,0 c -2.082,-0.073 -4.348,-0.256 -6.319,-0.73 -1.498,-0.366 -3.068,-0.877 -3.068,-2.704 0,-1.716 1.388,-2.154 2.849,-2.154 2.264,0 4.492,0.84 6.538,1.789 z m 0,-6.1 c -2.192,-0.914 -4.311,-1.535 -6.648,-1.535 -2.666,0 -5.114,1.242 -5.114,4.201 0,2.996 2.301,4.055 4.822,4.639 2.264,0.548 4.492,0.658 6.94,0.731 V 2.885 C 0,4.967 0.328,6.318 -2.448,6.318 -4.274,6.318 -6.1,5.916 -7.635,4.895 V 2.739 h -2.264 v 3.507 c 2.118,1.277 4.749,2.117 7.123,2.117 3.725,0 5.04,-0.985 5.04,-4.564 V -5.15 H 5.295 V -7.195 H 0 Z" /></g><g
           transform="translate(559.7793,359.8066)"
           id="g64"><path
             id="path66"
             style="fill:#fb925b;fill-opacity:1;fill-rule:nonzero;stroke:none"
             d="m 0,0 c -2.082,-0.073 -4.347,-0.256 -6.318,-0.73 -1.498,-0.366 -3.069,-0.877 -3.069,-2.704 0,-1.716 1.388,-2.154 2.85,-2.154 2.264,0 4.492,0.84 6.537,1.789 z m 0,-6.1 c -2.191,-0.914 -4.31,-1.535 -6.647,-1.535 -2.666,0 -5.114,1.242 -5.114,4.201 0,2.996 2.301,4.055 4.822,4.639 C -4.675,1.753 -2.447,1.863 0,1.936 V 2.885 C 0,4.967 0.329,6.318 -2.447,6.318 -4.273,6.318 -6.1,5.916 -7.634,4.895 V 2.739 h -2.264 v 3.507 c 2.118,1.277 4.749,2.117 7.123,2.117 3.725,0 5.04,-0.985 5.04,-4.564 V -5.15 H 5.296 V -7.195 H 0 Z" /></g><g
           transform="translate(576.4326,354.6562)"
           id="g68"><path
             id="path70"
             style="fill:#fb925b;fill-opacity:1;fill-rule:nonzero;stroke:none"
             d="M 0,0 H 6.611 V -2.045 H -5.442 V 0 h 3.178 v 10.994 l -2.667,-0.365 -0.328,1.863 c 1.168,0.072 2.374,0.219 3.213,0.987 0.293,0.328 0.513,0.62 0.987,0.62 C 0,14.099 0,13.076 0,12.272 v -1.936 c 2.009,1.461 3.945,3.178 6.574,3.178 1.9,0 3.106,-1.278 3.69,-2.958 L 7.999,9.643 C 7.707,10.41 7.342,11.469 6.355,11.469 4.492,11.469 1.425,8.875 0,7.598 Z" /></g><g
           transform="translate(598.7832,367.7324)"
           id="g72"><path
             id="path74"
             style="fill:#fb925b;fill-opacity:1;fill-rule:nonzero;stroke:none"
             d="M 0,0 H 8.511 V -2.045 H 0 v -7.306 c 0,-1.899 -0.219,-4.163 2.338,-4.163 1.973,0 4.456,0.62 6.391,1.205 l 0.732,-1.935 c -2.229,-0.621 -5.078,-1.317 -7.343,-1.317 -2.739,0 -4.383,1.608 -4.383,5.188 v 8.328 H -7.523 V 0 h 5.258 v 4.055 l 2.265,0 z" /></g><g
           transform="translate(627.5625,361.3398)"
           id="g76"><path
             id="path78"
             style="fill:#fb925b;fill-opacity:1;fill-rule:nonzero;stroke:none"
             d="M 0,0 C 0,2.85 -2.374,4.785 -5.112,4.785 -7.889,4.785 -10.373,2.74 -10.92,0 Z m -10.92,-2.045 c 0.219,-3.178 2.702,-5.076 6.61,-5.076 2.302,0 4.493,0.73 6.757,1.716 l 0.658,-1.863 c -2.301,-1.132 -5.15,-1.9 -7.707,-1.9 -6.61,0 -8.692,4.384 -8.692,7.671 0,4.675 3.433,8.327 8.144,8.327 4.494,0 7.452,-2.812 7.452,-7.341 0,-0.51 -0.037,-1.022 -0.147,-1.534 z" /></g><g
           transform="translate(649.0742,368.9375)"
           id="g80"><path
             id="path82"
             style="fill:#fb925b;fill-opacity:1;fill-rule:nonzero;stroke:none"
             d="M 0,0 2.009,-0.402 C 1.717,-1.57 1.497,-2.739 1.497,-3.945 c 0,-0.803 0.073,-1.571 0.256,-2.337 l -2.191,-0.183 -0.11,0.803 c -0.256,1.791 -0.804,2.849 -4.419,2.849 -1.718,0 -4.238,-0.511 -4.238,-2.703 0,-3.871 11.396,-0.546 11.396,-6.83 0,-3.506 -4.2,-4.42 -7.048,-4.42 -2.046,0 -3.361,0.366 -5.224,1.17 l -0.365,-1.315 -1.936,0.585 c 0.292,0.949 0.439,1.935 0.439,2.922 0,0.913 -0.111,1.862 -0.475,2.703 l 2.264,0.291 c 0.438,-3.031 1.095,-4.309 5.479,-4.309 1.352,0 4.492,0.401 4.492,2.41 0,4.055 -11.395,0.438 -11.395,6.647 0,3.361 3.36,4.894 6.537,4.894 1.607,0 3.142,-0.328 4.676,-0.839 z" /></g><g
           transform="translate(669.3437,359.8066)"
           id="g84"><path
             id="path86"
             style="fill:#fb925b;fill-opacity:1;fill-rule:nonzero;stroke:none"
             d="m 0,0 c -2.082,-0.073 -4.347,-0.256 -6.318,-0.73 -1.498,-0.366 -3.069,-0.877 -3.069,-2.704 0,-1.716 1.387,-2.154 2.849,-2.154 2.264,0 4.492,0.84 6.538,1.789 z m 0,-6.1 c -2.192,-0.914 -4.311,-1.535 -6.648,-1.535 -2.666,0 -5.114,1.242 -5.114,4.201 0,2.996 2.301,4.055 4.822,4.639 2.264,0.548 4.493,0.658 6.94,0.731 V 2.885 C 0,4.967 0.328,6.318 -2.447,6.318 -4.274,6.318 -6.1,5.916 -7.634,4.895 V 2.739 h -2.264 v 3.507 c 2.118,1.277 4.748,2.117 7.122,2.117 3.725,0 5.04,-0.985 5.04,-4.564 V -5.15 H 5.296 V -7.195 H 0 Z" /></g><g
           transform="translate(683.4766,354.6562)"
           id="g88"><path
             id="path90"
             style="fill:#fb925b;fill-opacity:1;fill-rule:nonzero;stroke:none"
             d="M 0,0 H 2.483 V -2.045 H -4.748 V 0 h 2.483 v 11.031 l -2.667,-0.365 -0.328,1.862 c 1.169,0.074 2.374,0.22 3.215,0.986 0.292,0.33 0.511,0.621 0.986,0.621 C 0,14.135 0,13.113 0,12.309 v -0.547 c 1.862,0.876 3.688,1.752 5.808,1.752 1.753,0 3.652,-0.657 4.492,-2.301 0.657,-1.278 0.621,-2.959 0.621,-4.383 V 0 h 2.483 V -2.045 H 6.173 V 0 h 2.483 v 6.758 c 0,2.226 0.147,4.711 -2.848,4.711 C 3.726,11.469 1.717,10.482 0,9.424 Z" /></g><g
           transform="translate(713.1689,359.8066)"
           id="g92"><path
             id="path94"
             style="fill:#fb925b;fill-opacity:1;fill-rule:nonzero;stroke:none"
             d="m 0,0 c -2.082,-0.073 -4.347,-0.256 -6.319,-0.73 -1.498,-0.366 -3.068,-0.877 -3.068,-2.704 0,-1.716 1.388,-2.154 2.849,-2.154 2.264,0 4.492,0.84 6.538,1.789 z m 0,-6.1 c -2.192,-0.914 -4.311,-1.535 -6.648,-1.535 -2.666,0 -5.114,1.242 -5.114,4.201 0,2.996 2.301,4.055 4.822,4.639 2.265,0.548 4.492,0.658 6.94,0.731 V 2.885 C 0,4.967 0.328,6.318 -2.448,6.318 -4.274,6.318 -6.1,5.916 -7.634,4.895 V 2.739 h -2.265 v 3.507 c 2.119,1.277 4.749,2.117 7.123,2.117 3.725,0 5.04,-0.985 5.04,-4.564 V -5.15 H 5.296 V -7.195 H 0 Z" /></g><g
           transform="translate(733.0361,354.6562)"
           id="g96"><path
             id="path98"
             style="fill:#fb925b;fill-opacity:1;fill-rule:nonzero;stroke:none"
             d="M 0,0 H 6.1 V -2.045 H -9.095 V 0 h 6.83 v 18.737 c -1.242,-0.219 -2.483,-0.329 -3.761,-0.365 l -2.12,-0.073 -0.364,2.01 2.337,0.036 c 1.132,0 3.287,0.073 4.091,1.022 0.292,0.328 0.511,0.548 0.986,0.548 C 0.036,21.915 0,20.819 0,20.016 Z" /></g><g
           transform="translate(191.1826,384.5674)"
           id="g100"><path
             id="path102"
             style="fill:#fb925b;fill-opacity:1;fill-rule:nonzero;stroke:none"
             d="m 0,0 c 2.58,4.704 5.256,9.357 7.84,14.06 1.037,1.891 1.924,3.871 2.83,5.833 0.34,0.733 0.363,1.671 0.84,2.269 3.951,4.93 5.81,10.916 8.443,16.511 3.336,7.075 6.59,14.194 9.172,21.581 2.309,6.6 4.41,13.27 6.539,19.929 0.32,1.008 0.277,2.129 0.432,3.193 1.279,8.822 2.994,17.539 6.095,25.934 -0.058,3.603 2.125,6.598 2.721,10.012 0.609,3.459 0.889,6.983 1.668,10.397 1.313,5.754 1.738,11.67 3.383,17.366 1.496,5.183 2.711,10.448 3.986,15.69 0.315,1.302 0.367,2.667 0.576,3.999 0.659,4.25 0.788,8.563 2.795,12.586 0.916,1.833 0.694,4.212 1.125,6.316 2.618,12.697 5.909,25.231 9.35,37.725 1.578,5.733 3.08,11.491 4.463,17.275 0.98,4.11 -0.305,5.345 -4.701,4.878 -0.539,-0.057 -1.092,-0.033 -1.614,-0.147 -9.482,-2.118 -19.072,-3.738 -28.216,-7.268 -3.743,-1.448 -7.416,-3.32 -11.534,-3.728 -0.779,-0.076 -1.611,-0.385 -2.267,-0.816 -3.19,-2.102 -6.563,-3.66 -10.428,-4.01 -0.504,-0.048 -1.008,-0.386 -1.459,-0.672 -3.164,-2.025 -6.361,-3.844 -10.051,-4.943 -3.855,-1.148 -7.47,-3.089 -11.222,-4.603 -3.506,-1.411 -7.065,-2.693 -10.584,-4.069 -2.258,-0.886 -4.616,-1.62 -6.717,-2.799 -7.389,-4.135 -15.455,-6.275 -23.567,-8.322 -4.839,-1.22 -9.06,0.439 -13.052,2.902 -0.873,0.538 -1.551,1.495 -2.139,2.379 -2.096,3.145 -4.102,6.341 -6.74,9.096 -1.225,1.278 -0.268,3.364 1.568,3.638 0.781,0.118 1.627,0.27 2.367,0.09 1.83,-0.446 3.647,-0.99 5.41,-1.65 3.456,-1.296 6.889,-1.152 10.258,0.129 4.524,1.719 9.037,3.48 13.471,5.416 10.379,4.522 20.664,9.248 31.061,13.73 10.158,4.38 20.412,8.536 30.609,12.831 10.219,4.304 20.758,7.655 31.521,10.253 7.389,1.781 14.897,2.606 22.498,1.219 1.325,-0.244 2.684,-0.344 4.032,-0.368 5.103,-0.091 9.414,-2.158 13.338,-5.227 1.498,-1.169 2.796,-2.467 3.681,-4.233 1.924,-3.836 4.725,-7.259 5.645,-11.565 0.273,-1.266 0.447,-2.761 0.041,-3.935 -2.815,-8.173 -5.092,-16.489 -7.147,-24.885 -1.347,-5.499 -2.972,-10.939 -4.709,-16.332 -0.965,-2.998 -1.095,-6.339 -3.865,-8.705 -1.092,-0.934 -1.51,-2.859 -1.853,-4.416 C 82.518,169.247 77.846,154.259 75.078,138.816 73.076,127.66 70.982,116.514 68.697,105.41 65.156,88.224 61.49,71.052 56.443,54.234 52.473,41.002 46.623,28.505 40.535,16.131 38.154,11.283 35.846,6.398 33.578,1.495 c -1.264,-2.734 -2.773,-5.367 -5.133,-7.192 -2.863,-2.214 -4.828,-5.029 -6.685,-8.019 -2.428,-3.906 -4.951,-7.76 -8.465,-10.801 -2.637,-2.285 -4.637,-5.459 -8.045,-6.67 -6.578,-2.334 -13.016,-5.044 -20.324,-4.805 -5.16,0.171 -10.246,0.125 -15.143,1.983 -12.406,1.897 -23.744,7.116 -35.4,11.364 -8.428,3.073 -16.217,7.376 -23.787,12.115 -2.52,1.577 -5.075,3.111 -7.487,4.839 -2.404,1.723 -4.673,3.641 -6.961,5.527 -1.873,1.546 -3.64,3.212 -5.527,4.74 -1.715,1.392 -3.017,2.972 -3.853,5.08 -2.143,5.387 -5.622,9.774 -10.317,13.235 -1.894,1.394 -1.974,2.691 -0.779,4.954 0.254,0.476 0.547,0.935 0.789,1.418 1.473,2.954 3.588,4.163 6.83,1.051 2.656,-2.551 5.559,-5.069 9.227,-6.378 5.255,-1.879 9.293,-5.326 12.552,-9.853 1.895,-2.637 4.127,-4.934 4.151,-8.524 0.013,-1.908 1.095,-3.585 2.457,-4.992 1.129,-1.164 2.119,-2.482 3.355,-3.513 10.795,-8.968 23.018,-15.144 36.783,-17.901 11.207,-2.245 22.03,-0.445 32.317,4.454 1.164,0.556 2.105,1.654 3.037,2.609 1.887,1.928 3.644,3.987 5.564,5.884 0.745,0.734 1.774,1.173 2.846,1.859 z" /></g><g
           transform="translate(475.2861,507.8833)"
           id="g104"><path
             id="path106"
             style="fill:#fb925b;fill-opacity:1;fill-rule:nonzero;stroke:none"
             d="m 0,0 c -2.795,-4.978 -5.578,-9.963 -8.377,-14.939 -0.734,-1.305 -1.627,-2.534 -2.215,-3.899 -8.195,-19.089 -19.185,-36.634 -30.424,-53.977 -4.67,-7.205 -9.293,-14.445 -16.089,-20.367 -9.448,-8.228 -18.979,-8.932 -29.637,-4.076 -5.762,2.624 -10.537,6.623 -14.235,11.833 -3.128,4.415 -4.683,9.235 -4.543,14.723 0.383,15.076 3.243,29.692 7.557,44.094 2.981,9.949 5.662,19.988 7.863,30.36 -2.918,-3.837 -6.035,-7.54 -8.701,-11.544 -3.453,-5.178 -6.342,-10.734 -9.855,-15.868 -2.787,-4.079 -6.155,-7.76 -9.258,-11.626 -2.182,-2.716 -4.611,-5.278 -6.477,-8.2 -6.709,-10.512 -16.152,-18.223 -25.802,-25.752 -6.973,-5.442 -11.94,-3.64 -19.924,1.308 -9.16,5.675 -11.588,14.836 -8.391,25.433 2.223,7.37 3.871,14.911 5.821,22.365 3.222,12.322 8.41,23.922 13.16,35.682 2.054,5.086 3.9,10.253 5.836,15.389 2.17,5.775 6.632,8.034 12.447,5.897 5.099,-1.872 9.017,-5.349 11.219,-10.377 0.646,-1.48 0.892,-3.508 0.441,-5.026 -1.059,-3.56 -2.385,-7.1 -4.066,-10.411 -10.077,-19.875 -18.225,-40.445 -23.086,-62.246 -0.68,-3.056 -0.678,-3.058 0.716,-8.39 6.432,1.611 10.463,5.707 14.295,9.943 12.403,13.706 23.604,28.359 34.192,43.501 6.289,8.993 12.773,17.849 19.123,26.8 3.166,4.464 6.222,9.003 9.572,13.859 4.809,0.429 9.557,1.919 14.912,-0.643 6.944,-3.325 11.172,-11.748 7.24,-19.482 -6.259,-12.312 -10.488,-25.349 -15.127,-38.241 -5.425,-15.077 -8.521,-30.753 -10.609,-46.611 -0.451,-3.439 -0.187,-6.979 -0.162,-10.471 0.021,-3.058 0.707,-5.911 3.107,-8.424 6.354,0.037 11.545,3.067 15.731,7.351 6.43,6.591 12.795,13.352 18.328,20.693 11.139,14.768 20.344,30.773 28.553,47.362 2.392,4.839 5.01,9.567 7.611,14.304 C -8.105,0.151 -6.926,0.048 -5.717,0.041 -3.791,0.024 -1.889,0 0,0" /></g><g
           transform="translate(614.9502,674.4893)"
           id="g108"><path
             id="path110"
             style="fill:#fb925b;fill-opacity:1;fill-rule:nonzero;stroke:none"
             d="m 0,0 c -16.928,-8.598 -20.902,-11.667 -32.982,-22.666 -16.186,-14.737 -29.262,-32.008 -41.206,-50.146 -12.748,-19.359 -24.65,-39.254 -34.531,-60.283 -3.179,-6.766 -6.49,-13.475 -9.636,-20.26 -1.731,-3.737 -3.239,-7.579 -4.846,-11.371 2.224,-0.052 3.611,0.442 4.64,1.341 12.385,10.825 25.038,21.367 36.989,32.656 22.892,21.618 43.607,45.233 61.947,70.843 10.238,14.297 18.957,29.385 19.814,47.644 C 0.369,-8.388 2.066,-4.491 0,0 m -75.5,-241.734 c -23.63,-30.542 -37.416,-29.068 -51.587,-26.181 -11.767,2.397 -21.184,11.427 -23.004,23.816 -2.091,14.233 -1.189,23.434 -1.189,23.434 0.931,18.559 1.56,35.975 2.362,54.386 0.249,5.717 9.604,25.586 9.604,25.586 4.175,9.046 8.382,18.091 13.027,26.898 4.182,7.919 8.922,15.55 13.521,23.243 3.198,5.352 6.467,10.671 9.907,15.87 7.562,11.442 15.086,22.913 22.963,34.138 3.71,5.29 8.224,10.012 12.324,15.028 7.109,8.706 15.025,16.647 23.205,24.318 7.344,6.887 15.371,12.714 25.48,15.028 7.811,1.791 15.356,0.908 22.76,-1.841 3.234,-1.199 5.338,-3.681 6.623,-6.766 2.043,-4.904 2.844,-9.937 2.315,-15.35 -1.364,-13.847 -5.444,-26.751 -12.28,-38.835 -0.842,-1.48 -1.232,-3.21 -1.986,-4.746 -0.971,-1.983 -1.674,-4.364 -3.225,-5.754 -7.687,-6.88 -12.884,-15.669 -18.957,-23.799 0,0 -15.207,-22.111 -21.609,-28.293 -7.822,-7.552 -14.772,-15.398 -22.063,-23.169 -10.613,-11.312 -21.939,-21.758 -34.291,-31.127 -3.365,-2.554 -6.466,-5.461 -9.634,-8.265 -4.192,-3.706 -8.93,-6.698 -14.358,-7.72 0,0 -2.909,-5.662 -3.742,-13.328 -1.482,-13.644 -2.37,-13.389 -3.333,-27.167 -0.627,-8.971 -3.276,-18.79 3.922,-24.202 15.162,-11.397 52.258,17.002 64.591,44.335 l 10.487,-4.3 c 0,0 -15.492,-27.041 -21.833,-35.237" /></g><g
           transform="translate(608.9346,554.5029)"
           id="g112"><path
             id="path114"
             style="fill:#fb925b;fill-opacity:1;fill-rule:nonzero;stroke:none"
             d="m 0,0 c 9.121,-1.466 13.223,0.782 17.279,8.958 3.09,6.227 6.233,12.441 9.7,18.463 3.716,6.457 7.832,12.683 11.791,18.996 2.056,3.282 3.609,6.884 1.949,10.573 -2.66,5.901 -7.797,8.81 -14.035,9.852 C 20.943,67.806 17.979,64.217 15.609,59.855 8.73,47.197 1.779,34.576 -4.893,21.81 -7.92,16.019 -9.27,9.699 -8.77,1.742 -5.672,1.12 -2.854,0.459 0,0 m 37.486,-52.528 c -6.968,-10.361 -14.257,-20.504 -22.683,-29.873 -11.09,-12.328 -23.664,-22.79 -36.635,-32.903 -1.75,-1.367 -3.816,-2.335 -5.77,-3.426 -8.712,-4.865 -15.732,-3.892 -22.943,3.239 -2.301,2.275 -6.518,7.165 -8.503,9.707 -3.418,4.38 -1.913,6.851 -1.399,12.259 1.013,10.669 5.447,20.223 9.644,29.769 5.715,13.002 12.117,25.707 18.34,38.482 0.967,1.984 2.348,3.858 3.883,5.456 4.15,4.329 7.437,4.786 12.726,2.01 1.545,-0.807 2.948,-1.882 4.477,-2.726 3.742,-2.07 4.986,-5.351 4.768,-9.417 -0.205,-3.793 -1.127,-7.272 -3.166,-10.602 -5.33,-8.698 -11.063,-17.247 -15.401,-26.433 -4.984,-10.556 -10.484,-20.994 -13.316,-32.466 -0.946,-3.834 -2.061,-7.672 -1.043,-12.199 5.262,-0.369 8.986,1.559 12.588,3.888 22.801,14.75 41.123,33.869 55.549,56.812 0.056,0.087 33.953,41.208 34.009,41.295 2.664,-1.127 -28.238,-42.781 -25.125,-42.872" /></g><g
           transform="translate(757.1377,502.4263)"
           id="g116"><path
             id="path118"
             style="fill:#fb925b;fill-opacity:1;fill-rule:nonzero;stroke:none"
             d="m 0,0 c -0.055,-0.061 -0.119,-0.117 -0.176,-0.178 -7.388,-8.066 -14.474,-16.416 -21.922,-24.428 -2.861,-3.071 -6.318,-5.609 -9.601,-8.27 -9.668,-7.839 -19.309,-15.71 -29.119,-23.367 -4.303,-3.36 -9.37,-5.806 -13.399,-9.432 -3.922,-3.53 -8.135,-6.495 -12.472,-9.403 -3.77,-2.526 -7.692,-2.981 -12.077,-2.212 -14.851,2.605 -23.548,12.189 -28.714,25.483 -2.114,5.436 -1.596,11.287 -0.436,17.001 2.51,12.351 8.043,23.537 13.236,34.873 6.498,14.183 15.852,26.467 25.477,38.562 6.736,8.466 15.785,11.063 26.103,9.127 6.975,-1.309 11.516,-5.654 13.069,-12.775 0.265,-1.217 0.551,-2.438 0.697,-3.67 0.477,-3.986 -1.166,-17.117 -2.936,-22.785 -1.746,-0.149 -3.234,-0.521 -4.658,-0.352 -4.56,0.535 -6.248,2.343 -5.906,6.893 0.279,3.714 1.213,7.374 1.803,11.065 0.381,2.402 0.662,4.817 -0.211,7.831 C -66.393,28.064 -71.705,22.294 -76.666,16.238 -86.523,4.2 -94.172,-9.15 -99.918,-23.628 c -3.314,-8.342 -6.248,-16.777 -8.227,-25.543 -1.228,-5.421 0.508,-10.368 2.358,-15.273 0.947,-2.508 3.224,-3.204 5.57,-2.598 4.086,1.053 8.371,1.91 12.061,3.83 6.392,3.331 12.812,6.873 18.478,11.28 15.135,11.768 31.268,22.33 44.748,36.137 5.043,5.164 10.004,10.425 14.766,15.849 0.303,0.343 0.584,0.7 0.887,1.046 C -7.211,0.522 -5.066,0.11 -2.775,0.093 -1.85,0.085 -0.926,0.024 0,0" /></g><g
           transform="translate(795.5479,511.9399)"
           id="g120"><path
             id="path122"
             style="fill:#fb925b;fill-opacity:1;fill-rule:nonzero;stroke:none"
             d="m 0,0 c -4.258,6.924 -5.812,15.266 -13.877,20.133 -1.756,-1.508 -3.545,-2.371 -4.256,-3.775 -2.859,-5.672 -7.678,-9.652 -11.64,-14.38 -12.477,-14.88 -21.278,-31.805 -26.928,-50.346 -1.998,-6.55 -1.588,-13.289 -0.522,-19.968 0.098,-0.601 0.92,-1.081 1.385,-1.594 4.147,-0.171 7.416,1.746 10.149,4.287 3.814,3.549 7.511,7.292 10.804,11.322 12.797,15.681 22.971,33.129 33.403,50.393 C -0.74,-2.701 -0.443,-1.208 0,0 m 9.77,-121.812 c -9.502,3.249 -15.866,8.953 -19.106,18.296 -3.412,9.833 -3.766,19.867 -2.818,30.209 1.357,14.861 6.668,28.551 11.283,42.477 2.562,7.737 5.23,15.436 7.851,23.153 -0.334,0.095 -0.669,0.186 -1.009,0.279 -1.073,-1.948 -2.225,-3.86 -3.209,-5.852 -8.758,-17.739 -19.944,-33.897 -32.057,-49.466 -3.976,-5.112 -7.869,-10.183 -13.025,-14.318 -7.123,-5.709 -16.555,-5.478 -23.645,0.465 -11.094,9.302 -13.644,21.171 -10.521,34.407 4.095,17.351 10.525,33.776 22.187,47.699 3.356,4.01 6.465,8.225 9.785,12.265 3.381,4.112 7.758,6.917 12.479,9.298 8.736,4.409 22.465,1.798 28.746,-5.677 3.045,-3.62 5.93,-7.374 9.254,-11.525 1.244,1.765 2.273,3.355 3.443,4.831 0.764,0.961 2.012,2.655 2.574,2.485 5.207,-1.598 6.33,5.263 11.467,4.888 C 35.094,21.242 42.879,9.963 38.301,-0.916 35.793,-6.878 32.473,-12.504 30.09,-18.509 24.311,-33.086 18.309,-47.616 13.441,-62.506 8.18,-78.599 7.402,-95.281 10.354,-112.037 c 0.166,-0.939 0.707,-1.814 1.216,-3.073 0,0 18.237,-13.556 -1.8,-6.702" /></g><g
           transform="translate(865.9834,405.2871)"
           id="g124"><path
             id="path126"
             style="fill:#fb925b;fill-opacity:1;fill-rule:evenodd;stroke:none"
             d="M 0,0 C 0.316,1.583 0.574,2.875 0.832,4.166 -0.377,4.32 -1.77,4.937 -2.756,4.539 -5.494,3.44 -8.139,2.043 -10.654,0.49 c -0.76,-0.467 -0.975,-1.821 -1.438,-2.769 0.85,-0.395 1.852,-1.301 2.526,-1.102 C -6.439,-2.463 -3.402,-1.236 0,0 m -18.152,19.488 c 2.736,-3.648 14.131,-5.66 17.236,-3.374 0.561,0.411 1.219,1.586 1.014,1.951 -0.409,0.728 -1.315,1.451 -2.135,1.628 -4.442,0.962 -8.91,1.814 -13.395,2.559 -0.849,0.141 -2.103,-0.103 -2.623,-0.67 -0.443,-0.483 -0.095,-1.689 -0.097,-2.094 m 47.584,23.246 c 2.189,1.868 3.994,2.635 4.304,3.803 1.797,6.714 3.344,13.504 4.692,20.326 0.211,1.069 -1.033,2.424 -1.604,3.647 -0.91,-1.138 -2.318,-2.146 -2.648,-3.432 C 32.527,60.657 31.137,54.168 29.719,47.691 29.488,46.637 29.58,45.514 29.432,42.734 M -13.82,37.699 c 4.652,-5.775 10.888,-9.041 17.83,-11.082 0.847,-0.249 1.988,0.514 2.994,0.807 -0.43,0.781 -0.701,2.077 -1.313,2.265 -8.089,2.491 -14.125,7.668 -19.345,14.096 -0.584,0.721 -2.295,0.526 -3.483,0.754 0.139,-1.144 -0.013,-2.448 0.491,-3.403 0.675,-1.284 1.859,-2.303 2.826,-3.437 M 16.592,75.793 C 15.895,75.587 15.197,75.38 14.5,75.174 c 0.287,-1.93 0.604,-3.854 0.859,-5.785 1.108,-8.319 2.159,-16.645 3.332,-24.952 0.205,-1.443 0.913,-2.814 1.387,-4.218 0.789,1.402 2.359,2.872 2.244,4.193 -0.785,8.863 -1.816,17.711 -3.056,26.524 -0.241,1.71 -1.748,3.242 -2.674,4.857 M -0.98,65.149 c -1.42,0.365 -2.706,0.693 -3.993,1.021 0.03,-1.311 -0.381,-2.842 0.155,-3.895 4.806,-9.447 9.736,-18.834 14.769,-28.161 0.483,-0.895 1.93,-1.268 2.928,-1.882 0.221,1.034 0.945,2.305 0.584,3.067 -4.672,9.884 -9.498,19.698 -14.443,29.85 m -21.006,-77.001 c -13.44,18.698 -16.717,37.725 -13.159,58.348 2.973,17.211 10.442,31.82 26.791,39.117 C 9.066,93.387 27.695,97.826 45.984,88.4 59.881,81.236 61.992,64.676 51.178,53.49 46.129,48.272 40.576,43.429 34.74,39.105 20.229,28.354 12.111,13.812 7.818,-3.379 6.508,-8.631 4.619,-13.84 2.234,-18.695 c -2.505,-5.1 -6.216,-5.93 -11.164,-2.741 -4.978,3.207 -9.58,7.005 -13.056,9.584" /></g><g
           transform="translate(895.46,406.4785)"
           id="g128"><path
             id="path130"
             style="fill:#fb925b;fill-opacity:1;fill-rule:evenodd;stroke:none"
             d="m 0,0 c -0.316,-1.584 -0.574,-2.876 -0.832,-4.166 1.209,-0.154 2.602,-0.771 3.588,-0.373 2.738,1.099 5.383,2.496 7.898,4.048 0.76,0.468 0.975,1.821 1.438,2.77 C 11.242,2.674 10.24,3.58 9.566,3.381 6.439,2.463 3.402,1.236 0,0 m 18.152,-19.488 c -2.736,3.648 -14.131,5.66 -17.236,3.374 -0.561,-0.412 -1.219,-1.587 -1.014,-1.951 0.409,-0.728 1.315,-1.451 2.135,-1.628 4.442,-0.961 8.91,-1.814 13.395,-2.559 0.849,-0.141 2.103,0.102 2.623,0.67 0.443,0.483 0.095,1.689 0.097,2.094 m -47.584,-23.246 c -2.189,-1.868 -3.994,-2.635 -4.304,-3.802 -1.797,-6.716 -3.344,-13.506 -4.692,-20.327 -0.211,-1.069 1.033,-2.424 1.604,-3.647 0.91,1.138 2.318,2.147 2.648,3.433 1.649,6.42 3.039,12.909 4.457,19.386 0.231,1.054 0.139,2.177 0.287,4.957 m 43.252,5.035 c -4.652,5.775 -10.888,9.04 -17.83,11.082 -0.847,0.249 -1.988,-0.514 -2.994,-0.807 0.43,-0.781 0.701,-2.078 1.313,-2.265 8.089,-2.491 14.125,-7.668 19.345,-14.096 0.584,-0.722 2.295,-0.526 3.483,-0.755 -0.139,1.145 0.013,2.449 -0.491,3.403 -0.675,1.285 -1.859,2.303 -2.826,3.438 m -30.412,-38.094 c 0.697,0.206 1.395,0.413 2.092,0.619 -0.287,1.93 -0.604,3.854 -0.859,5.785 -1.108,8.319 -2.159,16.646 -3.332,24.952 -0.205,1.443 -0.913,2.814 -1.387,4.218 -0.789,-1.402 -2.359,-2.872 -2.244,-4.192 0.785,-8.864 1.816,-17.713 3.056,-26.525 0.241,-1.71 1.748,-3.242 2.674,-4.857 M 0.98,-65.15 c 1.42,-0.364 2.706,-0.692 3.993,-1.02 -0.03,1.311 0.381,2.842 -0.155,3.894 -4.806,9.448 -9.736,18.834 -14.769,28.162 -0.483,0.895 -1.93,1.268 -2.928,1.882 -0.221,-1.034 -0.945,-2.305 -0.584,-3.067 4.672,-9.885 9.498,-19.698 14.443,-29.851 m 21.006,77.002 c 13.44,-18.698 16.717,-37.726 13.159,-58.348 -2.973,-17.212 -10.442,-31.82 -26.791,-39.117 -17.42,-7.774 -36.049,-12.213 -54.338,-2.787 -13.897,7.164 -16.008,23.724 -5.194,34.909 5.049,5.219 10.602,10.062 16.438,14.386 14.511,10.751 22.629,25.293 26.922,42.485 1.31,5.251 3.199,10.461 5.584,15.315 2.505,5.1 6.216,5.929 11.164,2.741 4.978,-3.208 9.58,-7.005 13.056,-9.584" /></g></g></g></g></svg>