<?xml version="1.0" encoding="UTF-8" standalone="no"?>
<!DOCTYPE svg PUBLIC "-//W3C//DTD SVG 20010904//EN"
              "http://www.w3.org/TR/2001/REC-SVG-20010904/DTD/svg10.dtd">

<svg xmlns="http://www.w3.org/2000/svg"
     width="13.88in" height="8in"
     viewBox="0 0 1388 800">
  <path id="Seleção #2"
                fill="#FB925B" stroke="none" stroke-width="1"
        d="M 1231.00,427.42
           C 1215.44,429.77 1195.75,434.98 1183.00,444.51
             1163.85,458.83 1158.25,480.46 1155.63,503.00
             1155.13,509.63 1154.52,513.15 1155.63,520.00
             1158.36,542.23 1164.10,565.42 1183.00,579.63
             1187.41,582.94 1195.26,589.37 1201.00,588.81
             1207.29,588.20 1210.42,580.18 1212.31,575.00
             1218.78,557.23 1218.35,549.39 1228.87,531.00
             1234.48,521.19 1243.28,511.61 1252.00,504.46
             1261.86,496.38 1276.40,486.18 1282.48,475.00
             1284.24,471.77 1285.44,467.66 1285.83,464.00
             1289.00,434.44 1254.45,424.56 1231.00,427.42 Z
           M 1233.00,501.00
           C 1230.91,493.76 1226.17,459.69 1226.00,452.00
             1232.20,453.06 1232.46,457.58 1233.27,463.00
             1233.27,463.00 1236.08,487.00 1236.08,487.00
             1236.61,493.56 1238.55,495.96 1233.00,501.00 Z
           M 1257.00,459.00
           C 1260.83,466.28 1257.09,475.42 1255.35,483.00
             1254.72,485.74 1253.67,490.66 1252.15,492.89
             1250.37,495.50 1248.81,496.03 1246.00,497.00
             1248.47,486.87 1249.33,465.90 1257.00,459.00 Z
           M 1224.00,512.00
           C 1217.94,509.81 1217.56,506.28 1214.58,501.00
             1214.58,501.00 1199.64,472.00 1199.64,472.00
             1198.95,469.63 1199.02,467.43 1199.00,465.00
             1207.19,467.15 1206.91,471.09 1210.26,478.00
             1210.26,478.00 1220.74,499.00 1220.74,499.00
             1223.06,503.79 1224.75,506.60 1224.00,512.00 Z
           M 1215.00,516.00
           C 1212.72,522.51 1206.58,518.96 1202.00,516.74
             1193.25,512.49 1182.76,505.54 1182.00,495.00
             1189.35,496.19 1192.52,502.11 1198.00,506.68
             1203.85,511.55 1208.14,513.25 1215.00,516.00 Z
           M 1250.04,523.69
           C 1243.48,526.56 1241.36,533.65 1239.05,540.00
             1233.56,555.10 1232.89,565.91 1223.80,581.00
             1217.74,591.05 1210.99,598.98 1202.00,606.56
             1192.60,614.49 1178.93,623.73 1172.10,634.00
             1164.30,645.74 1163.89,661.35 1174.18,671.83
             1178.43,676.15 1183.45,678.61 1189.00,680.80
             1195.35,683.29 1202.16,684.92 1209.00,685.00
             1209.00,685.00 1217.00,685.00 1217.00,685.00
             1232.10,684.93 1259.47,676.18 1271.00,666.67
             1288.25,652.44 1296.74,626.93 1297.00,605.00
             1297.00,605.00 1297.00,596.00 1297.00,596.00
             1296.97,575.30 1287.72,546.84 1271.00,533.89
             1265.07,529.30 1258.02,522.66 1250.04,523.69 Z
           M 1182.33,526.60
           C 1186.77,525.63 1196.44,527.72 1200.98,529.06
             1202.90,529.62 1206.21,530.96 1204.83,533.52
             1202.47,538.16 1188.64,535.29 1185.02,533.52
             1181.92,531.85 1179.25,529.54 1182.33,526.60 Z
           M 1207.00,551.00
           C 1206.66,553.00 1206.50,554.85 1205.15,556.50
             1201.92,560.43 1193.69,561.91 1189.00,561.00
             1191.15,553.86 1199.88,549.66 1207.00,551.00 Z
           M 1264.00,552.00
           C 1260.35,558.43 1252.38,562.91 1245.00,561.00
             1245.63,559.08 1246.12,557.01 1247.56,555.51
             1251.12,551.78 1259.38,550.28 1264.00,552.00 Z
           M 1272.00,586.00
           C 1263.20,585.99 1253.99,584.88 1246.00,581.00
             1247.00,579.17 1247.14,578.44 1249.14,577.31
             1253.90,574.63 1266.99,577.22 1270.40,581.39
             1271.72,583.00 1271.69,584.10 1272.00,586.00 Z
           M 1271.00,617.00
           C 1262.07,616.28 1255.97,605.83 1248.00,601.09
             1243.05,598.15 1239.19,598.61 1237.00,593.00
             1249.37,590.60 1268.71,604.98 1271.00,617.00 Z
           M 1254.00,647.00
           C 1246.38,646.11 1245.91,642.30 1242.75,636.00
             1242.75,636.00 1231.75,613.00 1231.75,613.00
             1229.16,607.80 1227.48,605.88 1229.00,600.00
             1235.06,603.58 1236.18,608.03 1239.26,614.00
             1243.82,622.83 1253.47,637.45 1254.00,647.00 Z
           M 1219.00,611.00
           C 1219.00,611.00 1227.00,660.00 1227.00,660.00
             1227.00,660.00 1223.00,661.00 1223.00,661.00
             1217.78,650.69 1218.08,639.28 1216.58,628.00
             1215.76,621.87 1214.81,616.03 1219.00,611.00 Z
           M 1206.00,615.00
           C 1205.93,623.10 1203.78,631.15 1201.87,639.00
             1200.32,645.38 1200.37,648.66 1195.00,653.00
             1191.74,645.83 1195.30,637.30 1197.13,630.00
             1197.78,627.37 1198.88,622.21 1200.14,620.04
             1201.75,617.26 1203.32,616.47 1206.00,615.00 Z" />
</svg>
