<?xml version="1.0" encoding="UTF-8" standalone="no"?>
<!DOCTYPE svg PUBLIC "-//W3C//DTD SVG 20010904//EN"
              "http://www.w3.org/TR/2001/REC-SVG-20010904/DTD/svg10.dtd">

<svg xmlns="http://www.w3.org/2000/svg"
     width="368.087mm" height="46.8378mm"
     viewBox="0 0 1391 177">
  <path id="Seleção"
        fill="none" stroke="black" stroke-width="1"
        d="M 1.00,1.00
           C 1.00,1.00 1.00,175.00 1.00,175.00
             1.00,175.00 1376.00,175.00 1376.00,175.00
             1380.04,174.99 1384.63,175.36 1387.40,171.77
             1389.55,168.99 1389.00,163.45 1389.00,160.00
             1389.00,160.00 1389.00,134.00 1389.00,134.00
             1389.00,134.00 1389.00,1.00 1389.00,1.00
             1389.00,1.00 1.00,1.00 1.00,1.00 Z
           M 601.00,13.00
           C 600.89,14.36 600.92,15.65 600.40,16.96
             596.92,25.75 587.72,18.96 584.11,19.80
             582.42,20.20 582.09,20.96 581.00,22.00
             581.00,22.00 576.00,21.00 576.00,21.00
             576.00,21.00 577.56,17.11 577.56,17.11
             581.59,9.99 588.37,14.94 592.00,15.10
             592.00,15.10 601.00,13.00 601.00,13.00 Z
           M 366.00,14.00
           C 366.00,14.00 366.00,33.00 366.00,33.00
             368.36,31.34 370.09,30.02 373.00,29.39
             384.00,27.03 389.87,36.31 390.00,46.00
             390.04,49.04 390.15,54.18 389.47,57.00
             387.62,64.62 380.77,69.33 373.00,67.61
             370.05,66.95 368.40,65.69 366.00,64.00
             363.19,67.75 361.46,66.98 357.00,67.00
             357.00,67.00 357.00,14.00 357.00,14.00
             357.00,14.00 366.00,14.00 366.00,14.00 Z
           M 736.00,14.00
           C 736.00,14.00 736.00,67.00 736.00,67.00
             732.04,67.00 728.69,68.07 727.00,64.00
             723.00,66.47 719.93,68.33 715.00,67.80
             694.98,65.65 699.01,23.71 720.00,29.57
             722.64,30.31 723.89,31.41 726.00,33.00
             726.00,33.00 726.00,14.00 726.00,14.00
             726.00,14.00 736.00,14.00 736.00,14.00 Z
           M 1082.00,14.00
           C 1082.00,14.00 1082.00,67.00 1082.00,67.00
             1077.85,66.98 1075.50,67.73 1073.00,64.00
             1070.61,65.69 1068.95,66.95 1066.00,67.61
             1042.69,72.78 1042.27,24.12 1066.00,29.53
             1068.95,30.21 1070.56,31.34 1073.00,33.00
             1073.00,33.00 1073.00,14.00 1073.00,14.00
             1073.00,14.00 1082.00,14.00 1082.00,14.00 Z
           M 416.14,15.62
           C 424.51,14.39 423.97,22.64 419.86,24.22
             415.00,26.09 410.07,19.80 416.14,15.62 Z
           M 849.14,15.62
           C 857.52,14.39 856.96,22.65 852.86,24.22
             847.86,26.12 842.95,19.87 849.14,15.62 Z
           M 1109.14,15.62
           C 1117.52,14.39 1116.96,22.65 1112.86,24.22
             1107.86,26.12 1102.95,19.87 1109.14,15.62 Z
           M 62.00,17.00
           C 62.00,17.00 62.59,50.00 62.59,50.00
             63.25,54.06 64.71,60.07 70.00,60.00
             74.98,59.93 77.09,54.06 77.85,50.00
             77.85,50.00 77.85,17.00 77.85,17.00
             77.85,17.00 87.00,17.00 87.00,17.00
             87.00,17.00 87.00,48.00 87.00,48.00
             86.98,52.02 86.86,56.38 84.86,60.00
             78.98,70.67 61.46,70.96 55.41,60.00
             52.43,54.58 53.00,48.94 53.00,43.00
             53.00,43.00 53.00,17.00 53.00,17.00
             53.00,17.00 62.00,17.00 62.00,17.00 Z
           M 1240.00,21.00
           C 1240.00,21.00 1240.00,30.00 1240.00,30.00
             1240.00,30.00 1254.00,30.00 1254.00,30.00
             1254.00,30.00 1254.00,36.00 1254.00,36.00
             1250.87,36.00 1243.83,35.36 1241.60,37.60
             1239.39,39.80 1239.50,52.08 1240.60,54.98
             1241.27,56.75 1242.45,58.21 1244.06,59.22
             1246.98,61.06 1251.58,60.07 1255.00,60.00
             1255.00,60.00 1256.00,66.00 1256.00,66.00
             1248.37,68.47 1235.93,70.37 1232.15,60.98
             1230.58,57.09 1231.01,50.32 1231.00,46.00
             1230.99,43.09 1231.45,38.86 1228.69,37.02
             1226.96,35.87 1224.01,36.03 1222.00,36.00
             1222.00,36.00 1222.00,30.00 1222.00,30.00
             1222.00,30.00 1231.00,30.00 1231.00,30.00
             1231.00,30.00 1231.00,21.00 1231.00,21.00
             1231.00,21.00 1240.00,21.00 1240.00,21.00 Z
           M 116.00,33.00
           C 122.59,27.81 129.16,27.52 131.47,37.00
             131.47,37.00 132.00,67.00 132.00,67.00
             132.00,67.00 123.00,67.00 123.00,67.00
             123.00,67.00 123.00,47.00 123.00,47.00
             123.00,44.60 123.31,39.42 120.99,37.96
             117.17,35.55 117.01,44.34 117.00,46.00
             117.00,46.00 117.00,67.00 117.00,67.00
             117.00,67.00 109.00,67.00 109.00,67.00
             109.00,67.00 109.00,47.00 109.00,47.00
             109.00,44.60 109.31,39.42 106.99,37.96
             103.17,35.55 103.01,44.34 103.00,46.00
             103.00,46.00 103.00,67.00 103.00,67.00
             103.00,67.00 95.00,67.00 95.00,67.00
             95.00,67.00 95.00,30.00 95.00,30.00
             95.00,30.00 103.00,30.00 103.00,30.00
             103.00,30.00 103.00,34.00 103.00,34.00
             106.98,29.35 112.08,26.48 116.00,33.00 Z
           M 173.00,67.00
           C 168.62,67.00 165.63,67.93 163.00,64.00
             158.30,67.20 153.76,68.96 148.00,67.44
             140.55,65.48 137.03,57.76 141.09,51.04
             143.77,46.60 148.10,45.29 153.00,45.04
             155.09,44.93 158.89,45.25 160.59,43.98
             163.55,41.76 160.88,37.25 156.98,36.49
             152.72,35.65 150.95,39.20 147.83,40.41
             145.85,41.17 142.20,41.00 140.00,41.00
             143.13,24.59 164.23,27.75 169.30,34.21
             173.69,39.81 171.19,56.90 173.00,67.00 Z
           M 259.00,43.00
           C 256.67,42.99 253.64,43.27 251.59,42.02
             249.70,40.87 246.93,36.48 242.58,37.02
             233.27,38.18 232.35,57.49 242.00,60.16
             246.22,61.32 248.74,57.36 251.28,56.01
             253.61,54.77 256.44,55.01 259.00,55.00
             257.54,68.64 242.00,71.02 233.09,65.01
             228.09,61.63 226.27,55.76 226.04,50.00
             225.77,43.42 227.36,36.10 233.09,32.13
             242.89,25.35 258.20,29.18 259.00,43.00 Z
           M 283.00,29.33
           C 288.86,28.69 294.14,29.33 298.67,33.53
             307.80,42.00 307.18,69.45 285.00,67.90
             274.48,67.17 269.26,60.07 269.01,50.00
             268.75,39.18 271.75,32.10 283.00,29.33 Z
           M 333.00,33.00
           C 341.70,24.89 347.86,30.60 348.00,41.00
             348.00,41.00 348.00,67.00 348.00,67.00
             348.00,67.00 340.00,67.00 340.00,67.00
             340.00,67.00 340.00,46.00 340.00,46.00
             340.00,46.00 338.98,39.31 338.98,39.31
             338.98,39.31 334.00,37.00 334.00,37.00
             334.00,37.00 334.00,67.00 334.00,67.00
             334.00,67.00 326.00,67.00 326.00,67.00
             326.00,67.00 326.00,48.00 326.00,48.00
             326.00,45.33 326.40,39.62 323.61,38.17
             319.04,35.79 319.01,44.80 319.00,47.00
             319.00,47.00 319.00,67.00 319.00,67.00
             319.00,67.00 311.00,67.00 311.00,67.00
             311.00,67.00 311.00,30.00 311.00,30.00
             311.00,30.00 319.00,30.00 319.00,30.00
             319.00,30.00 319.00,34.00 319.00,34.00
             323.60,29.46 328.52,26.43 333.00,33.00 Z
           M 477.00,67.00
           C 477.00,67.00 468.00,67.00 468.00,67.00
             468.00,61.65 468.57,46.19 466.97,42.02
             464.50,35.57 457.51,36.01 454.60,39.42
             452.82,41.50 453.02,44.44 453.00,47.00
             453.00,47.00 453.00,67.00 453.00,67.00
             453.00,67.00 443.00,67.00 443.00,67.00
             443.00,67.00 443.00,30.00 443.00,30.00
             443.00,30.00 452.00,30.00 452.00,30.00
             452.00,30.00 452.00,34.00 452.00,34.00
             455.64,31.81 458.63,29.63 463.00,29.20
             477.33,27.77 477.00,42.15 477.00,52.00
             477.00,52.00 477.00,67.00 477.00,67.00 Z
           M 519.00,67.00
           C 514.36,67.00 511.95,67.94 509.00,64.00
             503.87,67.62 498.06,69.67 492.02,66.55
             484.87,62.86 484.12,53.07 489.23,48.64
             494.58,43.99 502.42,45.00 509.00,45.00
             508.28,36.07 500.28,32.68 496.00,41.00
             496.00,41.00 487.00,41.00 487.00,41.00
             488.22,25.92 509.54,26.73 515.49,34.13
             518.08,37.36 517.98,41.10 518.04,45.00
             518.04,45.00 518.04,58.00 518.04,58.00
             518.04,58.00 519.00,67.00 519.00,67.00 Z
           M 562.00,43.00
           C 559.67,42.99 556.63,43.26 554.59,42.02
             552.56,40.79 549.91,36.17 545.02,37.24
             534.23,39.59 537.50,62.97 548.00,60.16
             550.54,59.47 552.60,56.97 554.42,55.98
             556.70,54.75 559.49,55.01 562.00,55.00
             561.23,65.71 555.86,63.77 550.00,70.00
             555.04,71.67 556.56,76.57 552.57,80.35
             549.91,82.86 546.40,82.91 543.00,83.00
             543.00,83.00 543.00,78.00 543.00,78.00
             547.57,75.37 546.31,73.62 542.00,72.00
             541.65,65.48 537.77,67.60 533.56,62.79
             528.66,57.20 527.88,46.78 530.40,40.00
             536.10,24.67 560.98,24.73 562.00,43.00 Z
           M 606.00,67.00
           C 601.62,67.00 598.63,67.93 596.00,64.00
             591.30,67.20 586.76,68.96 581.00,67.44
             573.70,65.52 569.95,57.64 573.93,51.04
             576.57,46.67 581.20,45.28 586.00,45.04
             588.09,44.93 591.89,45.25 593.59,43.98
             596.55,41.76 593.88,37.25 589.98,36.49
             585.72,35.65 583.95,39.20 580.83,40.41
             578.85,41.17 575.20,41.00 573.00,41.00
             576.12,24.63 597.73,27.30 602.77,35.10
             606.47,40.83 604.25,57.21 606.00,67.00 Z
           M 630.00,29.33
           C 636.14,28.70 642.33,29.99 646.36,35.10
             654.29,45.15 651.16,65.13 637.00,67.67
             611.83,72.20 606.23,35.03 630.00,29.33 Z
           M 781.00,51.00
           C 781.00,51.00 755.00,51.00 755.00,51.00
             755.50,52.70 755.53,53.40 756.59,54.98
             759.18,58.84 763.32,61.30 768.00,60.16
             770.25,59.62 772.91,57.87 775.00,58.09
             777.17,58.32 778.42,59.73 780.00,61.00
             772.93,69.82 757.12,70.76 749.56,61.82
             744.86,56.26 744.33,48.73 746.30,42.00
             750.58,27.39 766.99,26.29 774.67,32.80
             779.90,37.23 780.86,44.56 781.00,51.00 Z
           M 910.00,67.00
           C 910.00,67.00 901.00,67.00 901.00,67.00
             901.00,61.27 901.68,45.59 899.49,41.11
             897.13,36.28 890.67,35.82 887.60,39.42
             885.82,41.50 886.02,44.44 886.00,47.00
             886.00,47.00 886.00,67.00 886.00,67.00
             886.00,67.00 876.00,67.00 876.00,67.00
             876.00,67.00 876.00,30.00 876.00,30.00
             876.00,30.00 885.00,30.00 885.00,30.00
             885.00,30.00 885.00,34.00 885.00,34.00
             887.57,32.45 890.11,30.69 893.00,29.80
             900.27,27.57 906.58,30.73 908.94,38.00
             910.70,43.41 910.00,60.37 910.00,67.00 Z
           M 944.00,33.00
           C 945.69,28.93 949.04,30.00 953.00,30.00
             953.00,30.00 953.00,60.00 953.00,60.00
             952.99,66.72 952.81,74.53 946.82,78.87
             942.16,82.24 933.38,82.90 928.00,81.20
             925.68,80.47 922.30,78.83 922.34,75.96
             922.36,73.99 923.91,72.45 925.00,71.00
             933.15,75.89 941.98,77.61 943.00,65.00
             940.30,66.26 938.03,67.48 935.00,67.80
             914.36,69.99 913.07,31.23 932.00,29.20
             936.87,28.68 940.12,30.36 944.00,33.00 Z
           M 997.00,30.00
           C 996.47,32.92 996.41,37.82 992.85,38.52
             990.99,38.89 983.97,37.08 979.43,42.22
             975.54,46.63 977.00,60.96 977.00,67.00
             977.00,67.00 968.00,67.00 968.00,67.00
             968.00,67.00 968.00,30.00 968.00,30.00
             968.00,30.00 977.00,30.00 977.00,30.00
             977.00,30.00 977.00,36.00 977.00,36.00
             983.90,28.92 987.55,28.31 997.00,30.00 Z
           M 1040.00,51.00
           C 1040.00,51.00 1015.00,51.00 1015.00,51.00
             1016.25,56.87 1020.50,61.59 1027.00,60.28
             1030.22,59.85 1035.82,55.70 1037.83,60.28
             1040.12,65.15 1029.21,67.66 1026.00,67.91
             1012.01,68.97 1003.02,58.74 1005.32,45.00
             1008.36,26.93 1027.17,26.11 1034.89,33.22
             1040.51,38.39 1040.00,44.09 1040.00,51.00 Z
           M 1170.00,51.00
           C 1170.00,51.00 1145.00,51.00 1145.00,51.00
             1146.29,57.04 1150.38,61.46 1157.00,60.28
             1160.63,59.63 1163.37,57.37 1165.85,58.29
             1166.71,58.61 1167.45,59.28 1167.83,60.12
             1169.54,63.88 1163.60,66.13 1161.00,66.95
             1145.04,71.92 1132.37,60.37 1135.47,44.00
             1138.59,27.47 1156.51,26.38 1163.90,32.43
             1170.09,37.50 1170.00,43.80 1170.00,51.00 Z
           M 1213.00,67.00
           C 1213.00,67.00 1204.00,67.00 1204.00,67.00
             1204.00,61.35 1204.76,45.40 1202.57,41.06
             1200.26,36.48 1194.03,35.35 1190.59,39.43
             1188.82,41.53 1189.02,44.42 1189.00,47.00
             1189.00,47.00 1189.00,67.00 1189.00,67.00
             1189.00,67.00 1179.00,67.00 1179.00,67.00
             1179.00,67.00 1179.00,30.00 1179.00,30.00
             1179.00,30.00 1188.00,30.00 1188.00,30.00
             1188.00,30.00 1188.00,35.00 1188.00,35.00
             1191.54,31.86 1194.09,29.69 1199.00,29.20
             1213.33,27.76 1213.00,42.15 1213.00,52.00
             1213.00,52.00 1213.00,67.00 1213.00,67.00 Z
           M 1300.00,51.00
           C 1300.00,51.00 1274.00,52.00 1274.00,52.00
             1276.94,57.04 1280.49,61.44 1287.00,60.28
             1290.59,59.63 1293.43,57.36 1295.84,58.29
             1296.67,58.62 1297.38,59.28 1297.66,60.15
             1298.84,63.82 1292.66,66.44 1290.00,67.21
             1274.26,71.76 1262.58,59.63 1265.33,44.00
             1268.03,28.60 1285.89,25.22 1294.79,33.39
             1299.99,38.16 1300.00,44.55 1300.00,51.00 Z
           M 1343.00,41.00
           C 1343.00,41.00 1333.00,41.00 1333.00,41.00
             1331.18,37.60 1329.18,35.79 1325.00,36.19
             1322.60,36.42 1319.47,37.98 1320.34,40.91
             1321.25,44.00 1325.35,44.71 1328.00,45.26
             1334.64,46.62 1344.91,49.99 1342.34,59.00
             1338.95,70.84 1311.35,72.76 1309.00,56.00
             1311.05,56.01 1313.93,55.87 1315.83,56.58
             1319.12,57.81 1322.79,63.04 1328.98,60.93
             1330.11,60.55 1331.51,59.83 1332.09,58.72
             1333.69,55.60 1329.25,53.56 1327.00,52.79
             1320.86,50.69 1311.50,50.27 1310.24,42.00
             1309.12,34.67 1315.63,30.44 1322.00,29.33
             1331.55,27.65 1340.41,31.05 1343.00,41.00 Z
           M 423.00,30.00
           C 423.00,30.00 423.00,60.00 423.00,60.00
             423.00,60.00 433.00,60.00 433.00,60.00
             433.00,60.00 433.00,67.00 433.00,67.00
             433.00,67.00 403.00,67.00 403.00,67.00
             403.00,67.00 403.00,60.00 403.00,60.00
             405.71,60.00 410.37,60.43 412.40,58.40
             414.76,56.04 414.76,40.96 412.40,38.60
             410.37,36.57 405.71,37.00 403.00,37.00
             403.00,37.00 403.00,30.00 403.00,30.00
             403.00,30.00 423.00,30.00 423.00,30.00 Z
           M 856.00,30.00
           C 856.00,30.00 856.00,60.00 856.00,60.00
             856.00,60.00 866.00,60.00 866.00,60.00
             866.00,60.00 866.00,67.00 866.00,67.00
             866.00,67.00 836.00,67.00 836.00,67.00
             836.00,67.00 836.00,60.00 836.00,60.00
             836.00,60.00 846.00,60.00 846.00,60.00
             846.00,60.00 846.00,37.00 846.00,37.00
             846.00,37.00 836.00,37.00 836.00,37.00
             836.00,37.00 836.00,30.00 836.00,30.00
             836.00,30.00 856.00,30.00 856.00,30.00 Z
           M 1116.00,30.00
           C 1116.00,30.00 1116.00,60.00 1116.00,60.00
             1116.00,60.00 1126.00,60.00 1126.00,60.00
             1126.00,60.00 1126.00,67.00 1126.00,67.00
             1126.00,67.00 1095.00,67.00 1095.00,67.00
             1095.00,67.00 1095.00,60.00 1095.00,60.00
             1095.00,60.00 1106.00,60.00 1106.00,60.00
             1106.00,60.00 1106.00,37.00 1106.00,37.00
             1106.00,37.00 1095.00,37.00 1095.00,37.00
             1095.00,37.00 1095.00,30.00 1095.00,30.00
             1095.00,30.00 1116.00,30.00 1116.00,30.00 Z
           M 286.00,36.69
           C 274.28,39.23 276.28,58.63 285.02,60.53
             291.46,61.93 294.53,55.28 294.90,50.00
             295.38,43.21 293.55,37.37 286.00,36.69 Z
           M 373.00,36.82
           C 370.71,37.22 369.22,37.33 367.60,39.30
             365.76,41.54 362.77,60.13 373.00,60.59
             382.94,61.03 385.35,38.63 373.00,36.82 Z
           M 632.00,36.76
           C 624.81,39.14 623.16,46.17 624.85,53.00
             625.91,57.31 629.02,61.35 634.00,60.47
             643.32,58.82 644.94,37.09 632.00,36.76 Z
           M 719.00,36.86
           C 706.63,39.52 709.83,61.37 720.00,60.42
             729.67,59.52 725.80,40.31 724.26,38.70
             722.65,37.00 721.11,37.04 719.00,36.86 Z
           M 755.00,45.00
           C 755.00,45.00 772.00,45.00 772.00,45.00
             768.23,33.41 758.34,33.72 755.00,45.00 Z
           M 936.00,36.81
           C 923.50,39.10 926.32,61.57 937.00,60.55
             942.24,60.05 942.91,56.39 943.00,52.00
             943.12,45.00 945.01,37.75 936.00,36.81 Z
           M 1015.00,45.00
           C 1015.00,45.00 1031.00,45.00 1031.00,45.00
             1029.66,33.56 1017.32,34.13 1015.00,45.00 Z
           M 1065.00,36.87
           C 1057.69,39.05 1057.01,46.31 1058.23,53.00
             1058.99,57.17 1062.39,61.15 1067.00,60.32
             1069.05,59.96 1070.94,58.68 1071.98,56.87
             1073.67,53.92 1073.58,41.96 1071.40,39.30
             1069.56,37.06 1067.63,36.98 1065.00,36.87 Z
           M 1145.00,45.00
           C 1145.00,45.00 1161.00,45.00 1161.00,45.00
             1159.66,33.52 1147.36,33.92 1145.00,45.00 Z
           M 1275.00,45.00
           C 1275.00,45.00 1291.00,45.00 1291.00,45.00
             1289.39,33.59 1277.38,33.85 1275.00,45.00 Z
           M 163.00,50.14
           C 163.00,50.14 159.00,50.14 159.00,50.14
             157.50,50.02 155.45,50.02 154.02,50.14
             144.19,53.23 151.17,65.61 159.85,59.26
             161.09,58.36 161.85,57.37 162.40,55.96
             163.07,54.26 162.98,51.82 163.00,50.14 Z
           M 508.79,50.14
           C 508.79,50.14 505.00,50.14 505.00,50.14
             503.52,50.02 501.45,50.02 500.04,50.14
             498.02,51.02 496.54,52.09 495.76,54.10
             492.71,61.97 506.31,63.35 508.79,55.90
             509.05,54.33 508.98,51.68 508.79,50.14 Z
           M 596.00,50.14
           C 596.00,50.14 592.00,50.14 592.00,50.14
             590.50,50.02 588.45,50.02 587.02,50.14
             577.19,53.23 584.17,65.61 592.85,59.26
             594.09,58.36 594.85,57.37 595.40,55.96
             596.07,54.26 595.98,51.82 596.00,50.14 Z
           M 238.00,99.00
           C 238.00,99.00 238.00,152.00 238.00,152.00
             234.04,152.00 230.69,153.07 229.00,149.00
             226.00,150.73 223.54,152.42 220.00,152.80
             199.65,154.97 198.00,113.86 219.00,114.08
             222.79,114.12 224.74,115.36 228.00,117.00
             228.00,117.00 228.00,99.00 228.00,99.00
             228.00,99.00 238.00,99.00 238.00,99.00 Z
           M 488.00,99.00
           C 488.00,99.00 488.00,145.00 488.00,145.00
             488.00,145.00 499.00,145.00 499.00,145.00
             499.00,145.00 499.00,152.00 499.00,152.00
             499.00,152.00 467.00,152.00 467.00,152.00
             467.00,152.00 467.00,145.00 467.00,145.00
             467.00,145.00 478.00,145.00 478.00,145.00
             478.00,145.00 478.00,106.00 478.00,106.00
             478.00,106.00 467.00,106.00 467.00,106.00
             467.00,106.00 467.00,99.00 467.00,99.00
             467.00,99.00 488.00,99.00 488.00,99.00 Z
           M 584.00,99.00
           C 584.00,99.00 584.00,152.00 584.00,152.00
             579.54,151.98 577.81,152.75 575.00,149.00
             572.64,150.66 570.91,151.98 568.00,152.61
             544.90,157.57 544.78,109.24 568.00,114.39
             570.95,115.05 572.61,116.31 575.00,118.00
             575.00,118.00 575.00,99.00 575.00,99.00
             575.00,99.00 584.00,99.00 584.00,99.00 Z
           M 671.00,99.00
           C 671.00,99.00 671.00,152.00 671.00,152.00
             667.04,152.00 663.69,153.07 662.00,149.00
             659.00,150.73 656.54,152.42 653.00,152.80
             632.53,154.99 630.93,113.86 652.00,114.08
             655.79,114.12 657.74,115.36 661.00,117.00
             661.00,117.00 661.00,99.00 661.00,99.00
             661.00,99.00 671.00,99.00 671.00,99.00 Z
           M 1037.00,99.00
           C 1037.00,99.00 1037.00,118.00 1037.00,118.00
             1039.40,116.31 1041.05,115.05 1044.00,114.39
             1067.73,109.12 1067.58,157.84 1044.00,152.61
             1041.05,151.95 1039.39,150.69 1037.00,149.00
             1034.19,152.75 1032.46,151.98 1028.00,152.00
             1028.00,152.00 1028.00,99.00 1028.00,99.00
             1028.00,99.00 1037.00,99.00 1037.00,99.00 Z
           M 524.14,100.60
           C 533.60,98.79 532.62,107.70 527.89,109.16
             523.59,110.48 518.00,104.89 524.14,100.60 Z
           M 283.00,136.00
           C 283.00,136.00 257.00,136.00 257.00,136.00
             257.72,138.10 257.97,139.13 259.42,140.95
             262.24,144.48 265.54,146.05 270.00,145.02
             272.91,144.36 275.32,142.48 278.00,143.29
             279.63,143.79 280.73,144.98 282.00,146.00
             274.59,154.66 259.52,155.64 251.79,146.67
             247.08,141.22 246.55,132.66 248.64,126.00
             252.21,114.64 267.53,110.01 276.79,117.65
             282.01,121.95 282.94,129.70 283.00,136.00 Z
           M 359.00,118.00
           C 360.69,113.93 364.04,115.00 368.00,115.00
             368.00,115.00 368.00,167.00 368.00,167.00
             368.00,167.00 358.00,167.00 358.00,167.00
             358.00,167.00 358.00,150.00 358.00,150.00
             355.30,151.26 353.03,152.48 350.00,152.80
             328.12,155.12 328.32,109.13 352.00,114.39
             354.95,115.05 356.60,116.31 359.00,118.00 Z
           M 455.00,152.00
           C 450.96,152.00 446.75,153.21 445.00,149.00
             441.71,150.68 438.76,152.43 435.00,152.80
             426.78,153.62 420.27,148.67 421.11,140.00
             422.08,130.05 430.72,130.59 438.00,129.94
             440.72,129.70 444.25,128.61 442.83,125.04
             441.20,120.91 436.61,120.66 433.17,122.47
             427.28,125.57 428.90,124.99 422.00,125.00
             424.03,110.59 445.70,111.60 451.26,120.04
             453.27,123.09 452.99,126.53 453.00,130.00
             453.02,139.43 452.30,142.66 455.00,152.00 Z
           M 628.00,152.00
           C 623.96,152.00 619.75,153.21 618.00,149.00
             612.18,152.06 607.72,154.56 601.02,151.85
             593.04,148.64 591.78,137.90 598.21,132.85
             603.03,129.07 611.13,130.00 617.00,130.00
             616.60,125.07 614.09,119.78 608.09,121.60
             605.88,122.27 604.70,124.00 601.91,124.85
             600.30,125.09 596.78,125.00 595.00,124.85
             598.10,110.41 618.69,111.57 624.26,120.04
             626.75,123.83 625.98,131.44 626.00,136.00
             626.03,141.26 626.74,146.89 628.00,152.00 Z
           M 716.00,136.00
           C 716.00,136.00 690.00,136.00 690.00,136.00
             690.72,138.10 690.97,139.13 692.42,140.95
             695.24,144.48 698.54,146.05 703.00,145.02
             705.91,144.36 708.32,142.48 711.00,143.29
             712.63,143.79 713.73,144.98 715.00,145.91
             707.36,154.92 691.46,155.66 684.11,145.91
             679.76,139.99 679.51,132.73 681.62,126.00
             685.85,112.52 702.27,111.45 709.79,117.65
             714.86,121.82 715.87,129.85 716.00,136.00 Z
           M 801.00,128.00
           C 798.53,128.00 794.71,128.34 792.59,127.01
             790.82,125.90 789.22,122.88 785.98,122.08
             775.15,119.37 772.81,142.35 783.02,144.92
             787.32,146.01 790.10,142.21 792.42,140.97
             794.86,139.68 798.29,140.00 801.00,140.00
             799.96,143.30 799.26,146.09 796.66,148.61
             789.01,156.03 768.37,155.64 767.09,135.00
             766.73,129.08 768.66,121.75 773.33,117.80
             779.61,112.48 791.98,112.72 797.35,119.21
             799.42,121.71 800.27,124.91 801.00,128.00 Z
           M 824.00,114.33
           C 830.00,113.68 836.29,114.51 840.61,119.21
             848.22,127.49 848.34,154.47 826.00,152.90
             806.40,151.53 803.18,119.45 824.00,114.33 Z
           M 874.00,118.00
           C 882.55,111.27 888.85,114.02 889.00,125.00
             889.00,125.00 889.00,152.00 889.00,152.00
             889.00,152.00 881.00,152.00 881.00,152.00
             881.00,152.00 881.00,132.00 881.00,132.00
             881.00,129.82 881.43,123.04 878.00,123.04
             875.04,123.04 875.04,128.04 875.00,130.00
             875.00,130.00 875.00,152.00 875.00,152.00
             875.00,152.00 867.00,152.00 867.00,152.00
             867.00,152.00 867.00,132.00 867.00,132.00
             867.00,129.82 867.43,123.04 864.00,123.04
             861.04,123.04 861.04,128.04 861.00,130.00
             861.00,130.00 861.00,152.00 861.00,152.00
             861.00,152.00 852.00,152.00 852.00,152.00
             852.00,152.00 852.00,115.00 852.00,115.00
             855.85,115.01 858.39,114.12 860.00,118.00
             865.08,114.95 870.02,111.37 874.00,118.00 Z
           M 975.00,126.00
           C 975.00,126.00 965.00,126.00 965.00,126.00
             963.38,122.83 961.93,120.96 958.00,120.96
             955.44,120.96 951.35,122.63 952.34,125.89
             953.21,128.78 957.49,129.63 960.00,130.21
             966.58,131.73 976.94,134.90 974.34,144.00
             970.94,155.86 943.31,157.45 941.00,141.00
             943.06,141.01 945.92,140.87 947.83,141.58
             947.83,141.58 953.09,144.84 953.09,144.84
             955.74,146.15 962.29,146.76 963.95,143.57
             965.57,140.45 961.25,138.44 959.00,137.68
             952.94,135.65 943.46,134.97 942.24,127.00
             941.10,119.53 947.52,115.41 954.00,114.32
             963.90,112.66 972.40,115.67 975.00,126.00 Z
           M 1017.00,152.00
           C 1012.36,152.00 1009.95,152.94 1007.00,149.00
             999.08,154.39 985.28,154.99 984.11,143.00
             983.02,131.85 991.31,130.40 1000.00,129.98
             1002.80,129.85 1007.46,129.14 1005.83,125.04
             1004.20,120.91 999.61,120.66 996.17,122.47
             990.28,125.57 991.90,124.99 985.00,125.00
             986.67,110.64 1007.88,111.97 1013.49,119.11
             1016.08,122.40 1015.98,126.05 1016.00,130.00
             1016.00,130.00 1017.00,152.00 1017.00,152.00 Z
           M 1084.00,114.33
           C 1089.60,113.72 1095.36,114.32 1099.67,118.39
             1108.92,127.12 1107.94,154.43 1086.00,152.90
             1066.28,151.53 1067.05,125.88 1075.21,118.39
             1077.82,116.00 1080.67,115.13 1084.00,114.33 Z
           M 1147.18,124.00
           C 1144.19,123.63 1140.76,122.86 1138.00,123.36
             1134.35,124.01 1130.92,126.47 1129.60,130.00
             1128.59,132.70 1129.00,148.05 1129.00,152.00
             1129.00,152.00 1120.00,152.00 1120.00,152.00
             1120.00,152.00 1120.00,115.00 1120.00,115.00
             1120.00,115.00 1128.00,115.00 1128.00,115.00
             1128.00,115.00 1128.00,120.00 1128.00,120.00
             1131.34,117.80 1144.44,109.56 1147.18,116.31
             1148.11,118.03 1147.25,122.06 1147.18,124.00 Z
           M 388.11,115.00
           C 388.11,115.00 388.11,139.00 388.11,139.00
             388.94,142.85 391.79,145.97 396.00,144.92
             398.49,144.30 400.50,142.35 401.40,139.98
             402.45,137.26 402.00,119.24 402.00,115.00
             402.00,115.00 412.00,115.00 412.00,115.00
             412.00,115.00 412.00,152.00 412.00,152.00
             412.00,152.00 403.00,152.00 403.00,152.00
             403.00,152.00 403.00,147.00 403.00,147.00
             401.11,148.69 399.30,150.40 397.00,151.55
             390.34,154.87 382.59,152.05 379.97,144.99
             378.28,140.43 379.00,121.08 379.00,115.00
             379.00,115.00 388.11,115.00 388.11,115.00 Z
           M 531.00,115.00
           C 531.00,115.00 531.00,145.00 531.00,145.00
             531.00,145.00 541.00,145.00 541.00,145.00
             541.00,145.00 541.00,152.00 541.00,152.00
             541.00,152.00 511.00,152.00 511.00,152.00
             511.00,152.00 511.00,145.00 511.00,145.00
             513.36,145.00 517.73,145.28 519.69,143.98
             523.27,141.59 522.00,126.47 522.00,122.00
             522.00,122.00 511.00,122.00 511.00,122.00
             511.00,122.00 511.00,115.00 511.00,115.00
             511.00,115.00 531.00,115.00 531.00,115.00 Z
           M 220.04,121.66
           C 209.18,125.87 211.95,147.57 222.98,145.09
             227.59,144.06 227.92,141.03 228.00,137.00
             228.13,129.94 229.93,121.21 220.04,121.66 Z
           M 257.00,130.00
           C 257.00,130.00 274.00,130.00 274.00,130.00
             270.99,118.47 260.41,118.49 257.00,130.00 Z
           M 350.02,121.66
           C 339.73,125.52 341.70,143.62 350.02,145.34
             352.57,145.86 355.54,145.01 356.98,142.72
             358.21,140.78 358.00,137.27 358.00,135.00
             358.01,128.10 359.44,121.24 350.02,121.66 Z
           M 567.00,121.76
           C 564.55,122.57 563.36,122.86 561.74,125.13
             558.64,129.48 558.28,146.71 569.00,145.09
             571.08,144.78 572.90,143.70 573.98,141.86
             575.70,138.91 575.56,126.97 573.40,124.28
             571.51,121.92 569.73,121.83 567.00,121.76 Z
           M 653.02,121.67
           C 641.80,125.83 644.99,147.56 655.98,145.09
             660.59,144.06 660.92,141.03 661.00,137.00
             661.13,129.95 662.77,121.44 653.02,121.67 Z
           M 690.00,130.00
           C 690.00,130.00 707.00,130.00 707.00,130.00
             703.99,118.47 693.41,118.49 690.00,130.00 Z
           M 826.04,121.69
           C 819.40,124.60 818.07,131.38 819.68,138.00
             820.86,142.79 824.63,146.90 829.96,145.07
             838.44,142.15 839.30,120.32 826.04,121.69 Z
           M 1043.00,121.67
           C 1040.72,122.50 1039.35,122.82 1038.02,125.13
             1036.97,126.96 1033.47,147.83 1045.96,145.19
             1054.08,143.47 1055.90,121.36 1043.00,121.67 Z
           M 1086.02,121.66
           C 1075.35,125.65 1077.47,143.58 1086.02,145.34
             1098.12,147.83 1100.78,121.00 1086.02,121.66 Z
           M 444.00,135.14
           C 444.00,135.14 440.00,135.14 440.00,135.14
             438.52,135.02 436.45,135.02 435.04,135.14
             422.34,139.13 438.54,153.35 443.40,140.96
             444.07,139.26 443.98,136.82 444.00,135.14 Z
           M 616.84,135.14
           C 616.84,135.14 613.00,135.14 613.00,135.14
             611.52,135.02 609.45,135.02 608.04,135.14
             599.56,137.90 604.07,148.86 612.94,144.99
             614.95,144.12 616.09,143.03 616.84,140.90
             617.06,139.54 616.99,136.50 616.84,135.14 Z
           M 1007.00,135.14
           C 1007.00,135.14 1003.00,135.14 1003.00,135.14
             1001.50,135.02 999.45,135.02 998.02,135.14
             988.09,138.26 995.40,150.43 1003.85,144.26
             1005.09,143.36 1005.85,142.37 1006.40,140.96
             1007.07,139.26 1006.98,136.82 1007.00,135.14 Z
           M 1172.06,141.43
           C 1174.42,141.15 1176.52,140.80 1178.49,142.60
             1181.83,145.66 1180.48,151.49 1175.95,152.53
             1169.26,154.05 1164.24,145.02 1172.06,141.43 Z" />
</svg>
